<?xml version="1.0" encoding="utf-8"?>
<!-- Generator: Adobe Illustrator 15.1.0, SVG Export Plug-In . SVG Version: 6.00 Build 0)  -->
<!DOCTYPE svg PUBLIC "-//W3C//DTD SVG 1.1//EN" "http://www.w3.org/Graphics/SVG/1.1/DTD/svg11.dtd">
<svg version="1.1" id="Layer_1" xmlns="http://www.w3.org/2000/svg" xmlns:xlink="http://www.w3.org/1999/xlink" x="0px" y="0px"
	 width="792px" height="612px" viewBox="0 0 792 612" enable-background="new 0 0 792 612" xml:space="preserve">
<path fill-rule="evenodd" clip-rule="evenodd" fill="#E6E7E8" d="M418.795,236.038c0.062,1.123-0.28,2.34-1.029,3.65
	c-0.499,0.999-2.121,3.65-4.867,7.955c-1.884,2.97-4.658,7.481-8.319,13.536l-0.002,0.003c-0.103,0.155-3.369,5.156-4.563,8.182
	v0.002c-3.189,6.193-5.29,11.525-6.301,15.994c-0.312,1.435-0.437,2.651-0.375,3.65c0.125,1.622,0.749,2.433,1.872,2.433
	c2.059,0,4.243-1.685,6.551-5.054c0.249-0.375,0.468-0.593,0.655-0.655c0.062,0.125,0.124,0.281,0.187,0.468
	c0,0.125-0.265,0.811-0.795,2.059c-0.53,1.248-1.076,2.527-1.639,3.837c-0.873,1.685-1.81,2.527-2.807,2.527
	c-1.373,0-3.401-1.029-6.083-3.088c-0.936-0.687-1.498-1.841-1.685-3.463c-0.36-4.385,1.681-11.633,6.12-21.744
	c0.213-0.472,2.596-5.739,3.09-6.753c1.425-2.895,3.876-7.787,7.355-14.664c0.624-1.17,0.904-1.981,0.843-2.417
	c0-0.25-0.062-0.375-0.188-0.375c-1.531,0-8.054,6.495-19.566,19.483h0l-0.003,0.003c-0.136,0.145-4.116,4.396-5.928,7.143
	c-1.574,0.302-3.164,0.543-4.43,0.716c0.569-0.634,1.153-1.281,1.754-1.942l0.081-0.088l0.148-0.163l0.148-0.163l3.829-4.21
	l0.008-0.001l0.546-0.608l0.001-0.002l3.57-3.976c8.111-8.922,14.35-15.692,18.718-20.309c1.05-1.296,2.679-3.265,4.889-5.904
	l0.075-0.083c0.102,0.068,1.754,0.347,4.957,0.84C417.547,233.168,418.607,234.229,418.795,236.038L418.795,236.038z
	 M374.608,277.876c-1.239,1.653-2.483,3.306-3.731,4.957c-5.667,7.495-10.701,13.103-15.068,16.846
	c-5.989,5.117-11.636,7.674-16.939,7.674c-3.369,0-6.396-0.779-9.079-2.339c-3.12-1.935-4.679-4.461-4.679-7.581
	c0-0.437,0.188-0.656,0.562-0.656c0.375,0,0.562,0.25,0.562,0.749c0,3.557,2.621,5.334,7.861,5.334c1.311,0,2.621-0.062,3.931-0.187
	c6.239-0.874,12.416-4.211,18.531-10.014c1.636-1.467,5.669-6.02,12.1-13.657L374.608,277.876z"/>
<path fill-rule="evenodd" clip-rule="evenodd" fill="#E6E7E8" d="M435.277,267.667c0,0.375-0.062,0.749-0.188,1.123
	c-0.374,0.812-1.716,2.277-4.024,4.399c-1.56,1.373-3.15,2.776-4.772,4.212c-17.72,18.156-26.58,31.353-26.58,39.588
	c0,2.87,1.061,4.305,3.183,4.305v0.749c-0.374,0.188-0.78,0.28-1.217,0.28c-1.435,0-2.714-0.873-3.838-2.62
	c-0.998-1.56-1.497-3.119-1.497-4.68c0-5.24,3.557-13.04,10.67-23.397c5.802-8.485,11.23-15.13,16.284-19.935
	c-0.375-0.374-0.562-0.811-0.562-1.31c0-0.936,0.842-2.09,2.527-3.463c1.247-0.874,2.526-1.778,3.837-2.714
	c1.123,0.062,2.37,0.375,3.743,0.936C434.466,265.889,435.277,266.731,435.277,267.667z"/>
<path fill-rule="evenodd" clip-rule="evenodd" fill="#E6E7E8" d="M457.804,273.969c-0.289,1.521-1.177,2.645-2.663,3.369
	c-1.484,0.725-2.952,1.413-4.401,2.065c-0.869,0.652-2.391,1.485-4.563,2.5c-0.218,0.073-0.363-0.108-0.436-0.543
	c-0.072-0.435,0.182-0.833,0.761-1.195c4.42-2.753,6.63-6.014,6.63-9.781c0-4.782-5.507-7.173-16.52-7.173
	c-9.201,0-21.7,2.427-37.495,7.282c-17.171,5.217-29.09,8.115-35.756,8.694c-2.97,0.29-5.217-0.725-6.738-3.043
	c-1.304-1.957-1.956-4.42-1.956-7.391c0-2.608,3.224-5.506,9.673-8.694c5.868-2.826,11.303-4.601,16.302-5.325
	c3.623-0.58,5.688-0.29,6.195,0.869c-8.187,2.753-14.201,4.891-18.041,6.413c-1.667,0.724-3.152,1.376-4.456,1.956l0,0
	c-5.145,2.536-6.702,4.419-4.674,5.651c1.739,1.087,5.616,1.449,11.629,1.087c4.709-0.29,11.774-1.521,21.193-3.695
	c6.882-1.739,13.766-3.441,20.649-5.108c10.724-2.463,19.382-3.695,25.975-3.695c2.392,0,4.529,0.181,6.412,0.543
	c3.188,0.507,5.398,1.087,6.63,1.739c2.536,1.304,3.623,3.37,3.26,6.195c1.74,3.405,2.609,5.398,2.609,5.978
	C458.021,273.027,457.948,273.462,457.804,273.969z"/>
<path fill-rule="evenodd" clip-rule="evenodd" d="M345.592,224.58h11.369v1.132h-10.131c-2.237,0-4.068,1.831-4.068,4.069v10.337
	h-1.339v-11.369C341.423,226.456,343.299,224.58,345.592,224.58L345.592,224.58z M342.763,314.396v9.728
	c0,2.238,1.831,4.069,4.068,4.069h10.131v1.362h-11.369c-2.293,0-4.169-1.876-4.169-4.169v-10.99H342.763L342.763,314.396z
	 M430.86,224.58h11.37c2.292,0,4.168,1.876,4.168,4.169v11.369h-1.191v-10.337c0-2.238-1.83-4.069-4.067-4.069H430.86V224.58
	L430.86,224.58z M446.398,314.396v10.99c0,2.293-1.876,4.169-4.168,4.169h-11.37v-1.362h10.279c2.237,0,4.067-1.831,4.067-4.069
	v-9.728H446.398z"/>
</svg>
